<?xml version="1.0" encoding="UTF-8" standalone="no"?>
<!-- Created with Inkscape (http://www.inkscape.org/) -->

<svg
   width="12.764001mm"
   height="15.045586mm"
   viewBox="0 0 12.764001 15.045586"
   version="1.1"
   id="svg5"
   sodipodi:docname="logo.svg"
   inkscape:version="1.1 (c68e22c387, 2021-05-23)"
   xmlns:inkscape="http://www.inkscape.org/namespaces/inkscape"
   xmlns:sodipodi="http://sodipodi.sourceforge.net/DTD/sodipodi-0.dtd"
   xmlns="http://www.w3.org/2000/svg"
   xmlns:svg="http://www.w3.org/2000/svg">
  <sodipodi:namedview
     id="namedview7"
     pagecolor="#ffffff"
     bordercolor="#666666"
     borderopacity="1.0"
     inkscape:pageshadow="2"
     inkscape:pageopacity="0.0"
     inkscape:pagecheckerboard="0"
     inkscape:document-units="mm"
     showgrid="false"
     inkscape:zoom="4.5323125"
     inkscape:cx="95.4259"
     inkscape:cy="73.362108"
     inkscape:window-width="2400"
     inkscape:window-height="1261"
     inkscape:window-x="3191"
     inkscape:window-y="234"
     inkscape:window-maximized="1"
     inkscape:current-layer="g3145"
     width="50mm" />
  <defs
     id="defs2">
    <marker
       style="overflow:visible"
       id="marker7588"
       refX="0"
       refY="0"
       orient="auto"
       inkscape:stockid="Arrow2Lstart"
       inkscape:isstock="true">
      <path
         transform="matrix(1.1,0,0,1.1,1.1,0)"
         d="M 8.7185878,4.0337352 -2.2072895,0.01601326 8.7185884,-4.0017078 c -1.7454984,2.3720609 -1.7354408,5.6174519 -6e-7,8.035443 z"
         style="fill:context-stroke;fill-rule:evenodd;stroke-width:0.625;stroke-linejoin:round"
         id="path7586" />
    </marker>
    <marker
       style="overflow:visible"
       id="marker7578"
       refX="0"
       refY="0"
       orient="auto"
       inkscape:stockid="Arrow1Lstart"
       inkscape:isstock="true">
      <path
         transform="matrix(0.8,0,0,0.8,10,0)"
         style="fill:context-stroke;fill-rule:evenodd;stroke:context-stroke;stroke-width:1pt"
         d="M 0,0 5,-5 -12.5,0 5,5 Z"
         id="path7576" />
    </marker>
    <marker
       style="overflow:visible"
       id="marker7568"
       refX="0"
       refY="0"
       orient="auto"
       inkscape:stockid="Arrow1Lstart"
       inkscape:isstock="true">
      <path
         transform="matrix(0.8,0,0,0.8,10,0)"
         style="fill:context-stroke;fill-rule:evenodd;stroke:context-stroke;stroke-width:1pt"
         d="M 0,0 5,-5 -12.5,0 5,5 Z"
         id="path7566" />
    </marker>
    <marker
       style="overflow:visible"
       id="Arrow1Lstart"
       refX="0"
       refY="0"
       orient="auto"
       inkscape:stockid="Arrow1Lstart"
       inkscape:isstock="true">
      <path
         transform="matrix(0.8,0,0,0.8,10,0)"
         style="fill:context-stroke;fill-rule:evenodd;stroke:context-stroke;stroke-width:1pt"
         d="M 0,0 5,-5 -12.5,0 5,5 Z"
         id="path1765" />
    </marker>
    <marker
       style="overflow:visible"
       id="Arrow2Lend"
       refX="0"
       refY="0"
       orient="auto"
       inkscape:stockid="Arrow2Lend"
       inkscape:isstock="true">
      <path
         transform="matrix(-1.1,0,0,-1.1,-1.1,0)"
         d="M 8.7185878,4.0337352 -2.2072895,0.01601326 8.7185884,-4.0017078 c -1.7454984,2.3720609 -1.7354408,5.6174519 -6e-7,8.035443 z"
         style="fill:context-stroke;fill-rule:evenodd;stroke-width:0.625;stroke-linejoin:round"
         id="path1786" />
    </marker>
    <marker
       style="overflow:visible"
       id="Arrow2Lstart"
       refX="0"
       refY="0"
       orient="auto"
       inkscape:stockid="Arrow2Lstart"
       inkscape:isstock="true">
      <path
         transform="matrix(1.1,0,0,1.1,1.1,0)"
         d="M 8.7185878,4.0337352 -2.2072895,0.01601326 8.7185884,-4.0017078 c -1.7454984,2.3720609 -1.7354408,5.6174519 -6e-7,8.035443 z"
         style="fill:context-stroke;fill-rule:evenodd;stroke-width:0.625;stroke-linejoin:round"
         id="path1783" />
    </marker>
    <linearGradient
       id="linearGradient1205"
       inkscape:swatch="gradient">
      <stop
         style="stop-color:#806600;stop-opacity:1;"
         offset="0"
         id="stop1201" />
      <stop
         style="stop-color:#806600;stop-opacity:0;"
         offset="1"
         id="stop1203" />
    </linearGradient>
    <marker
       style="overflow:visible"
       id="marker7588-4"
       refX="0"
       refY="0"
       orient="auto"
       inkscape:stockid="Arrow2Lstart"
       inkscape:isstock="true">
      <path
         transform="matrix(1.1,0,0,1.1,1.1,0)"
         d="M 8.7185878,4.0337352 -2.2072895,0.01601326 8.7185884,-4.0017078 c -1.7454984,2.3720609 -1.7354408,5.6174519 -6e-7,8.035443 z"
         style="fill:context-stroke;fill-rule:evenodd;stroke-width:0.625;stroke-linejoin:round"
         id="path7586-7" />
    </marker>
  </defs>
  <g
     inkscape:label="Logo"
     inkscape:groupmode="layer"
     id="layer1"
     style="mix-blend-mode:normal"
     transform="translate(0.02532145,0.77361731)">
    <path
       id="path4297"
       style="color:#000000;fill:#00acc4;stroke-width:0.252431;stroke-linecap:round;stroke-linejoin:round;-inkscape-stroke:none"
       d="m 6.3569404,-0.77361731 c -3.5238771,0 -6.38226184,2.85799211 -6.38226185,6.38186791 10e-9,2.4832692 1.47476005,4.6727074 3.54628665,5.7276004 0.2192551,0.123735 0.264788,-0.01709 0.1841393,-0.08105 C 1.5372156,10.277058 0.11712692,8.1413655 0.11712692,5.6082552 c 0,-3.446798 2.79301338,-6.23928909 6.23981348,-6.23928909 3.4467993,0 6.2392866,2.79249109 6.2392866,6.23928909 0,2.5331103 -1.508252,4.7166918 -3.6759996,5.6944468 -0.00264,0.07037 -0.02361,0.136913 0.309263,-0.0036 2.0713876,-1.054897 3.5091886,-3.2074922 3.5091886,-5.6907605 0,-3.523878 -2.8578655,-6.38187026 -6.3817386,-6.3818702 z"
       sodipodi:nodetypes="ssccsssccss" />
    <g
       id="g3145"
       transform="matrix(0.25243077,0,0,0.25243077,0.17837183,-0.70237794)"
       inkscape:label="Workflow"
       style="display:inline">
      <rect
         style="fill:none;fill-opacity:1;fill-rule:evenodd;stroke:#ffffff;stroke-width:1.554;stroke-linecap:round;stroke-linejoin:round;stroke-miterlimit:4;stroke-dasharray:none;stroke-opacity:1;paint-order:normal"
         id="rect41"
         width="10.546361"
         height="10.546361"
         x="19.72682"
         y="3.3798325"
         inkscape:label="rect41" />
      <rect
         style="mix-blend-mode:normal;fill:none;fill-opacity:1;fill-rule:evenodd;stroke:#ffffff;stroke-width:1.554;stroke-linecap:round;stroke-linejoin:round;stroke-miterlimit:4;stroke-dasharray:none;stroke-opacity:1;paint-order:normal"
         id="rect41-6"
         width="10.546361"
         height="10.546361"
         x="19.695646"
         y="36.073807" />
      <rect
         style="mix-blend-mode:normal;fill:none;fill-opacity:1;fill-rule:evenodd;stroke:#ffffff;stroke-width:1.554;stroke-linecap:round;stroke-linejoin:round;stroke-miterlimit:4;stroke-dasharray:none;stroke-opacity:1;paint-order:normal"
         id="rect41-6-5"
         width="10.546361"
         height="10.546361"
         x="19.757994"
         y="19.72682" />
      <path
         style="fill:none;fill-opacity:1;stroke:#00acc4;stroke-width:1.23289;stroke-linecap:butt;stroke-linejoin:round;stroke-miterlimit:4;stroke-dasharray:none;stroke-dashoffset:0;stroke-opacity:1"
         d="m 36.332456,24.818681 5.229447,0.0049 -0.0022,-16.6785362 -8.957072,9.833e-4 h -1.032312"
         id="path5368"
         sodipodi:nodetypes="ccccc" />
      <path
         style="mix-blend-mode:normal;fill:none;stroke:#ffffff;stroke-width:1.23362;stroke-linecap:butt;stroke-linejoin:round;stroke-miterlimit:4;stroke-dasharray:none;stroke-dashoffset:0;stroke-opacity:1"
         d="m 12.619494,41.388225 -5.2303008,0.005 0.0022,-16.695603 8.9585338,9.84e-4 h 1.032481"
         id="path5368-7"
         sodipodi:nodetypes="ccccc" />
    </g>
    <circle
       style="fill:#00acc4;fill-opacity:1;stroke:none;stroke-width:0.0760538;stroke-linecap:round;stroke-linejoin:round;stroke-opacity:1"
       id="path7790"
       cx="6.4530993"
       cy="11.708083"
       r="0.12621541" />
    <text
       xml:space="preserve"
       style="font-style:normal;font-weight:normal;font-size:2.67156px;line-height:1.25;font-family:sans-serif;fill:#ffffff;fill-opacity:1;stroke:none;stroke-width:0.0667878"
       x="1.3367987"
       y="14.231529"
       id="text9904"><tspan
         sodipodi:role="line"
         id="tspan9902"
         style="fill:#ffffff;fill-opacity:1;stroke-width:0.0667878"
         x="1.3367987"
         y="14.231529">Faas</tspan></text>
    <text
       xml:space="preserve"
       style="font-style:normal;font-weight:normal;font-size:2.67156px;line-height:1.25;font-family:sans-serif;fill:#000000;fill-opacity:1;stroke:none;stroke-width:0.0667878"
       x="6.5976195"
       y="13.19999"
       id="text11746"><tspan
         sodipodi:role="line"
         id="tspan11744"
         style="fill:none;fill-opacity:1;stroke-width:0.0667878"
         x="6.5976195"
         y="13.19999">Net</tspan></text>
    <text
       xml:space="preserve"
       style="font-style:normal;font-weight:normal;font-size:2.67156px;line-height:1.25;font-family:sans-serif;fill:#00ac00;fill-opacity:1;stroke:none;stroke-width:0.0667878"
       x="7.1723289"
       y="14.234795"
       id="text28829"><tspan
         sodipodi:role="line"
         id="tspan28827"
         style="fill:#00acc4;fill-opacity:1;stroke-width:0.0667878"
         x="7.1723289"
         y="14.234795">Net</tspan></text>
  </g>
</svg>
